# xmcd
#
# Track frame offsets: 
#        150
#        28164
#        51079
#        73227
#        88811
#        115245
#        131676
#        144085
#        158386
#        191125
#        202245
#
# Disc length: 3072 seconds
#
# Revision: 3
# Processed by: cddbd v1.5.2PL0 Copyright (c) Steve Scherf et al.
# Submitted via: ExactAudioCopyFreeDBPlugin 1.0
#
DISCID=a10bfe0b
DTITLE=mate.O - Totalne Uwielbienie
DYEAR=2005
DGENRE=Christian Rock
TTITLE0=Panie nasz
TTITLE1=Poprowadze ich
TTITLE2=Przyjaciel
TTITLE3=Twe drogi
TTITLE4=Jestes blisko
TTITLE5=Dostalismy
TTITLE6=Nie co ja chce
TTITLE7=Twe swiatlo
TTITLE8=Jestes zyciem
TTITLE9=Przyjdzie
TTITLE10=Jezus dla Jezusa
EXTD=YEAR: 2005
EXTT0=
EXTT1=
EXTT2=
EXTT3=
EXTT4=
EXTT5=
EXTT6=
EXTT7=
EXTT8=
EXTT9=
EXTT10=
PLAYORDER=
